# xmcd CD database file
#
# Track frame offsets:
#	150
#	29654
#	46888
#	72324
#	100130
#	110673
#	134175
#	150113
#	164694
#	203942
#	236021
#	249989
#	263812
#	275573
#
# Disc length: 3896 seconds
#
# Revision: 0
# Processed by: cddbd v1.5.2PL0 Copyright (c) Steve Scherf et al.
# Submitted via: CDex 1.50
#
DISCID=ce0f360e
DTITLE=Various Artist - Jazzadelic 07.6
DYEAR=2007
DGENRE=Jazz
TTITLE0=Boi Akih - Kema Ahatia (Just Now)
TTITLE1=Daniela Procópio - Purple Rain
TTITLE2=Eddy De Clercq and Friends - Music To Watch Girls Go By
TTITLE3=Special Request Horns Vol. 1 - You Make Me Feel Alright!
TTITLE4=Milton Grayson - It Ain't Necessarily So
TTITLE5=José JAmes - Red
TTITLE6=Anan MouraOs Búzios
TTITLE7=Celeste Rodrigues - Fado Celeste
TTITLE8=Bernie's Lounge - Esclava De La Cocina
TTITLE9=Maceo Parker - Shake Everything You Got
TTITLE10=The Soul Snatchers feat. Jimi Bell Martin - I Can't Stand it
TTITLE11=Bill Evans - Walk Into The Light
TTITLE12=Hans Teeuwen - The Best Is Yet To Come
TTITLE13=Sweet Coffee - Downtowm
EXTD=YEAR: 2007
EXTT0=
EXTT1=
EXTT2=
EXTT3=
EXTT4=
EXTT5=
EXTT6=
EXTT7=
EXTT8=
EXTT9=
EXTT10=
EXTT11=
EXTT12=
EXTT13=
PLAYORDER=
